<?xml version="1.0" encoding="UTF-8" standalone="no"?>
<!-- Created with Inkscape (http://www.inkscape.org/) -->

<svg
   xmlns:dc="http://purl.org/dc/elements/1.1/"
   xmlns:cc="http://creativecommons.org/ns#"
   xmlns:rdf="http://www.w3.org/1999/02/22-rdf-syntax-ns#"
   xmlns:svg="http://www.w3.org/2000/svg"
   xmlns="http://www.w3.org/2000/svg"
   xmlns:sodipodi="http://sodipodi.sourceforge.net/DTD/sodipodi-0.dtd"
   xmlns:inkscape="http://www.inkscape.org/namespaces/inkscape"
   width="256pc"
   height="256pc"
   viewBox="0 0 3839.9999 3840.0001"
   id="svg2"
   version="1.1"
   inkscape:version="0.91 r13725"
   sodipodi:docname="logo.svg"
   inkscape:export-filename="/home/nebulon/projects/yellowtent/apps/lamp-app/logo.png"
   inkscape:export-xdpi="6"
   inkscape:export-ydpi="6">
  <defs
     id="defs4" />
  <sodipodi:namedview
     id="base"
     pagecolor="#ffffff"
     bordercolor="#666666"
     borderopacity="1.0"
     inkscape:pageopacity="0.0"
     inkscape:pageshadow="2"
     inkscape:zoom="0.04375"
     inkscape:cx="408.20832"
     inkscape:cy="3651.575"
     inkscape:document-units="px"
     inkscape:current-layer="layer1"
     showgrid="false"
     units="pc"
     inkscape:window-width="1920"
     inkscape:window-height="1016"
     inkscape:window-x="0"
     inkscape:window-y="27"
     inkscape:window-maximized="1" />
  <metadata
     id="metadata7">
    <rdf:RDF>
      <cc:Work
         rdf:about="">
        <dc:format>image/svg+xml</dc:format>
        <dc:type
           rdf:resource="http://purl.org/dc/dcmitype/StillImage" />
        <dc:title></dc:title>
      </cc:Work>
    </rdf:RDF>
  </metadata>
  <g
     inkscape:label="Layer 1"
     inkscape:groupmode="layer"
     id="layer1"
     transform="translate(0,2787.6379)">
    <g
       id="g4324"
       transform="translate(0,-429.74243)">
      <path
         inkscape:connector-curvature="0"
         id="path4233"
         d="m 201.77272,-171.81666 c -63.17621,-27.6751 -68.72541,-53.92715 -65.47745,-309.76071 l 2.90464,-228.79371 91.46952,0 91.46951,0 5.38056,225.98351 5.38056,225.9835 191.61636,2.94097 191.61637,2.94114 -3.29678,45.4839 -3.29678,45.48406 -236.74462,2.37649 c -183.16923,1.8386 -244.50158,-1.02119 -271.02189,-12.63915 z"
         style="fill:#094080;fill-opacity:1" />
      <path
         inkscape:connector-curvature="0"
         id="path4229"
         d="m 821.00118,-716.57938 0,272.60936 c 0,149.93838 3.41033,276.03649 7.58315,280.20948 4.17282,4.1729 44.12352,6.19616 88.77923,4.48936 l 81.1961,-3.11056 3.09384,-99.54035 3.0938,-99.54036 117.5653,0 117.5652,0 3.0938,99.54036 3.0938,99.54035 91.4695,0 91.4696,0 2.7575,-220.60295 c 2.5683,-204.43294 1.1977,-223.17623 -18.7311,-255.67748 -11.8278,-19.2896 -37.2904,-44.68438 -56.58,-56.44542 -32.3354,-19.71523 -54.5792,-21.40378 -285.2537,-21.43822 l -250.19602,-0.0344 z m 348.54252,66.39946 c 23.0464,0.557 40.7814,1.75105 47.6348,3.4637 4.5022,1.12519 8.7704,3.03757 12.7956,5.68325 4.0253,2.6456 7.8095,6.02141 11.3161,10.07172 7.013,8.10063 12.9332,18.906 17.6213,31.93022 4.688,13.02431 8.1431,28.27626 10.1726,45.2976 2.0295,17.02133 2.6439,35.79871 1.6815,55.89058 l -3.1779,66.43313 -142.9717,3.00967 -142.97154,2.99297 3.077,-110.60417 3.0771,-110.62086 102.23064,-3.1611 c 28.1134,-0.8676 56.4682,-0.94379 79.5145,-0.38654 z"
         clip-path="none"
         style="fill:#094080;fill-opacity:1" />
      <path
         sodipodi:nodetypes="ccccsscccssaccccsssccc"
         inkscape:connector-curvature="0"
         id="path4221"
         d="m 2954.9864,-717.12596 -256.4509,2.8752 -256.451,2.89207 -2.892,263.44563 c -1.588,144.89425 -0.452,269.78522 2.5221,277.53607 3.9941,10.4091 28.6646,13.27328 94.3615,10.96282 l 88.9474,-3.12744 3.0434,-115.68203 3.0602,-115.68203 156.2044,0 c 220.4493,0 241.234,-14.50108 241.234,-168.37786 0,-78.17118 2.2412,-93.80261 -23.7451,-128.94007 -11.1319,-15.05205 -49.834,-25.90236 -49.834,-25.90236 z m -330.7363,89.85534 102.2306,0 102.2306,0 0,63.42337 c 0,47.89955 -4.1589,65.01352 -17.016,69.94728 -9.3619,3.59258 -55.3657,6.5239 -102.2306,6.5239 l -85.2146,0 0,-69.94727 z"
         style="fill:#094080;fill-opacity:1" />
      <path
         inkscape:connector-curvature="0"
         id="path4209"
         d="m 1540.4513,-433.07356 0,-274.40855 307.2263,0 c 331.2552,0 338.0167,1.01715 392.2465,59.00615 26.7224,28.57473 26.9248,30.3145 30.1861,259.28934 l 3.2834,230.5216 -91.423,0 -91.4232,0 -3.3297,-210.81334 c -3.2854,-208.00073 -3.6763,-211.09348 -29.2926,-231.81603 -14.2796,-11.55151 -33.6496,-19.52541 -43.0445,-17.71978 -14.8516,2.85428 -17.4608,33.11773 -19.986,231.81603 l -2.9044,228.53312 -91.2554,0 -91.2555,0 0,-231.36407 0,-231.36406 -43.0444,0 -43.0445,0 0,231.36406 0,231.36407 -91.4695,0 -91.4696,0 0,-274.40854 z"
         style="fill:#ff7f00;fill-opacity:1" />
    </g>
    <g
       id="g4304"
       transform="matrix(8.6088954,0,0,8.6088954,-1179.0369,-6278.0919)">
      <path
         id="path4213"
         d="m 490.5957,490.16602 c -1.27377,-0.0707 -1.8457,0.51344 -1.8457,1.71679 0,1.01335 1.64736,5.98773 3.66016,11.05469 8.2963,20.8847 7.62529,35.08777 -1.86133,39.41016 -1.74145,0.79346 -4.12415,1.44807 -5.29492,1.45507 -3.94774,0.0226 -14.85232,5.91871 -19.45118,10.51758 -4.88302,4.88302 -12.05273,17.84526 -12.05273,21.78907 0,2.42705 3.11377,3.88146 8.37891,3.91406 2.05718,0.0127 3.36595,-1.36467 5.17187,-5.44727 4.37328,-9.88651 10.58936,-15.42568 20.64453,-18.39453 9.93132,-2.93228 16.12898,-6.97636 18.89649,-12.32812 3.19989,-6.1879 4.50424,-14.66779 3.36914,-21.90625 -1.03887,-6.62485 -1.00256,-6.74986 1.55078,-5.40039 4.8961,2.58763 26.34945,25.46042 30.55664,32.57812 14.37337,24.31675 16.49195,48.12003 6.1875,69.51758 -6.23508,12.94737 -22.17739,24.09052 -41.00586,28.66406 -9.13531,2.21901 -9.38505,2.38258 -9.77539,6.375 -0.22031,2.25344 -0.0792,4.93691 0.31445,5.96289 0.90649,2.36226 7.48614,1.42721 20.71094,-2.94141 33.03654,-10.91312 50.31271,-36.35428 48.35742,-71.21289 -1.86717,-33.28782 -25.71889,-66.73517 -63.70312,-89.33203 -6.61478,-3.93513 -10.68564,-5.87431 -12.8086,-5.99218 z"
         style="fill:#094080;fill-opacity:1"
         inkscape:connector-curvature="0" />
      <path
         id="path4205"
         d="m 521.11719,537.54102 c -0.59479,0 -2.75272,3.30987 -4.79492,7.35546 -5.00824,9.92127 -12.17901,15.83638 -23.16797,19.10938 -9.99139,2.97587 -13.32633,5.51985 -16.89258,12.88672 -3.46902,7.16606 -3.22995,8.00438 2.55664,8.92969 7.0981,1.13504 12.57964,5.17015 15.86914,11.68164 2.39569,4.74219 2.8125,7.55339 2.8125,18.9707 0,7.37207 -0.58523,14.9441 -1.30078,16.82617 -0.71564,1.88206 -1.01429,4.1674 -0.66406,5.08008 0.81094,2.11325 1.83795,2.0857 11.07031,-0.30664 15.72893,-4.07578 28.34176,-13.19567 34.37891,-24.85742 2.77149,-5.35363 3.33929,-8.31242 3.77539,-19.68946 0.59899,-15.62626 -1.78832,-25.60863 -8.97071,-37.51367 -4.98543,-8.26353 -13.09373,-18.47265 -14.67187,-18.47265 z"
         style="fill:#ff7f00;fill-opacity:1"
         inkscape:connector-curvature="0" />
    </g>
  </g>
</svg>
